<?xml version="1.0" encoding="UTF-8" standalone="no"?>
<!-- Created with Inkscape (http://www.inkscape.org/) -->

<svg
   xmlns:dc="http://purl.org/dc/elements/1.1/"
   xmlns:cc="http://creativecommons.org/ns#"
   xmlns:rdf="http://www.w3.org/1999/02/22-rdf-syntax-ns#"
   xmlns:svg="http://www.w3.org/2000/svg"
   xmlns="http://www.w3.org/2000/svg"
   xmlns:sodipodi="http://sodipodi.sourceforge.net/DTD/sodipodi-0.dtd"
   xmlns:inkscape="http://www.inkscape.org/namespaces/inkscape"
   width="458.03571pt"
   height="357.32141pt"
   viewBox="0 0 161.58482 126.05505"
   version="1.1"
   id="svg8"
   inkscape:version="0.92.5 (2060ec1f9f, 2020-04-08)"
   sodipodi:docname="font-6.svg">
  <defs
     id="defs2">
    <marker
       inkscape:stockid="Arrow2Mend"
       orient="auto"
       refY="0"
       refX="0"
       id="Arrow2Mend"
       style="overflow:visible"
       inkscape:isstock="true">
      <path
         id="path1292"
         style="fill:#000000;fill-opacity:1;fill-rule:evenodd;stroke:#000000;stroke-width:0.625;stroke-linejoin:round;stroke-opacity:1"
         d="M 8.7185878,4.0337352 -2.2072895,0.01601326 8.7185884,-4.0017078 c -1.7454984,2.3720609 -1.7354408,5.6174519 -6e-7,8.035443 z"
         transform="scale(-0.6)"
         inkscape:connector-curvature="0" />
    </marker>
    <marker
       inkscape:stockid="Arrow1Lend"
       orient="auto"
       refY="0"
       refX="0"
       id="Arrow1Lend"
       style="overflow:visible"
       inkscape:isstock="true">
      <path
         id="path1268"
         d="M 0,0 5,-5 -12.5,0 5,5 Z"
         style="fill:#000000;fill-opacity:1;fill-rule:evenodd;stroke:#000000;stroke-width:1.00000003pt;stroke-opacity:1"
         transform="matrix(-0.8,0,0,-0.8,-10,0)"
         inkscape:connector-curvature="0" />
    </marker>
    <marker
       inkscape:stockid="Arrow2Mend"
       orient="auto"
       refY="0"
       refX="0"
       id="Arrow2Mend-9"
       style="overflow:visible"
       inkscape:isstock="true">
      <path
         inkscape:connector-curvature="0"
         id="path1292-9"
         style="fill:#000000;fill-opacity:1;fill-rule:evenodd;stroke:#000000;stroke-width:0.625;stroke-linejoin:round;stroke-opacity:1"
         d="M 8.7185878,4.0337352 -2.2072895,0.01601326 8.7185884,-4.0017078 c -1.7454984,2.3720609 -1.7354408,5.6174519 -6e-7,8.035443 z"
         transform="scale(-0.6)" />
    </marker>
    <marker
       inkscape:stockid="Arrow2Mend"
       orient="auto"
       refY="0"
       refX="0"
       id="Arrow2Mend-0"
       style="overflow:visible"
       inkscape:isstock="true">
      <path
         inkscape:connector-curvature="0"
         id="path1292-4"
         style="fill:#000000;fill-opacity:1;fill-rule:evenodd;stroke:#000000;stroke-width:0.625;stroke-linejoin:round;stroke-opacity:1"
         d="M 8.7185878,4.0337352 -2.2072895,0.01601326 8.7185884,-4.0017078 c -1.7454984,2.3720609 -1.7354408,5.6174519 -6e-7,8.035443 z"
         transform="scale(-0.6)" />
    </marker>
    <marker
       inkscape:stockid="Arrow2Mend"
       orient="auto"
       refY="0"
       refX="0"
       id="Arrow2Mend-0-2"
       style="overflow:visible"
       inkscape:isstock="true">
      <path
         inkscape:connector-curvature="0"
         id="path1292-4-2"
         style="fill:#000000;fill-opacity:1;fill-rule:evenodd;stroke:#000000;stroke-width:0.625;stroke-linejoin:round;stroke-opacity:1"
         d="M 8.7185878,4.0337352 -2.2072895,0.01601326 8.7185884,-4.0017078 c -1.7454984,2.3720609 -1.7354408,5.6174519 -6e-7,8.035443 z"
         transform="scale(-0.6)" />
    </marker>
    <clipPath
       id="d">
      <path
         inkscape:connector-curvature="0"
         d="m 1079.639,230.26 c 9,13.5 25.2,19.8 46.617,20.7 19.619,0.721 60.478,0.18 81.357,-1.08 a 54.19,54.19 0 0 0 -4.14,11.881 c -19.44,0.719 -57.238,1.08 -77.037,0.359 -23.758,-0.9 -40.5,-7.379 -51.838,-21.42 -8.28,7.74 -17.1,15.481 -26.279,23.4 l -6.479,-11.7 c 7.92,-5.941 17.459,-13.5 26.1,-21.24 V 196.242 H 1044 v -11.16 h 35.639 z m -3.42,-60.836 c -6.481,-6.84 -19.8,-15.84 -31.32,-21.42 l 7.74,-7.74 c 11.519,5.041 25.019,13.679 31.679,20.519 z m 5.039,-35.639 c -5.76,-7.021 -18.539,-16.381 -29.519,-22.14 l 7.92,-7.559 c 10.8,5.58 23.939,14.578 30.059,21.6 z m 34.558,25.559 c -0.719,24.119 -4.5,54.9 -21.238,76.676 a 33.015,33.015 0 0 0 -9.54,-6.84 c 17.459,-22.5 19.259,-53.637 19.259,-77.035 v -41.219 h 96.116 v 11.34 h -84.6 v 26.459 h 68.758 l 2.16,-0.541 7.559,2.7 c -5.939,23.76 -16.738,42.84 -30.418,57.779 11.7,10.619 26.1,18.539 42.838,23.4 a 39.5,39.5 0 0 0 -7.74,10.259 113.734,113.734 0 0 1 -43.377,-25.558 127.446,127.446 0 0 1 -39.419,23.758 42.239,42.239 0 0 0 -6.84,-9.9 110.163,110.163 0 0 0 38.166,-22.322 c -11.7,-13.5 -20.519,-29.879 -26.64,-48.957 z m 16.379,0 c 5.4,15.658 13.141,29.517 23.4,41.037 a 113.668,113.668 0 0 0 24.119,-41.037 z"
         style="fill:none"
         id="path11" />
    </clipPath>
  </defs>
  <sodipodi:namedview
     id="base"
     pagecolor="#ffffff"
     bordercolor="#666666"
     borderopacity="1.0"
     inkscape:pageopacity="0.0"
     inkscape:pageshadow="2"
     inkscape:zoom="0.98994949"
     inkscape:cx="498.09202"
     inkscape:cy="132.85677"
     inkscape:document-units="mm"
     inkscape:current-layer="layer1"
     showgrid="false"
     inkscape:window-width="1920"
     inkscape:window-height="1135"
     inkscape:window-x="0"
     inkscape:window-y="0"
     inkscape:window-maximized="1"
     units="pt"
     fit-margin-top="0"
     fit-margin-left="0"
     fit-margin-right="0"
     fit-margin-bottom="0" />
  <metadata
     id="metadata5">
    <rdf:RDF>
      <cc:Work
         rdf:about="">
        <dc:format>image/svg+xml</dc:format>
        <dc:type
           rdf:resource="http://purl.org/dc/dcmitype/StillImage" />
        <dc:title />
      </cc:Work>
    </rdf:RDF>
  </metadata>
  <g
     inkscape:label="Layer 1"
     inkscape:groupmode="layer"
     id="layer1"
     transform="translate(-13.178714,-1.611721)">
    <rect
       style="opacity:1;fill:#e6e6e6;fill-opacity:1;stroke:none;stroke-width:0.70555556;stroke-linecap:butt;stroke-linejoin:bevel;stroke-miterlimit:4;stroke-dasharray:none;stroke-dashoffset:0;stroke-opacity:1"
       id="rect3036"
       width="161.58482"
       height="126.05505"
       x="13.178711"
       y="1.6117208" />
    <g
       id="g1059"
       transform="translate(-1.5013074,-2.3068071)">
      <path
         style="fill:#000000;stroke-width:1"
         d="m 85.829328,40.77248 c -0.981376,-0.839 -0.971446,-0.69653 -0.113701,-1.63096 l 0.74572,-0.81239 0.707311,0.70364 c 0.389022,0.387 0.697352,0.73352 0.685175,0.77005 -0.03804,0.11413 -1.272999,1.50692 -1.33615,1.50692 -0.03296,0 -0.342716,-0.24176 -0.688355,-0.53726 z m -2.600704,-3.95935 c -0.892455,-0.1017 -1.430303,-0.24301 -2.115606,-0.55582 -1.076642,-0.49145 -1.692047,-1.24175 -1.902015,-2.31894 -0.115569,-0.5929 -0.06885,-1.96869 0.09202,-2.70969 l 0.09676,-0.44569 h 0.366459 0.36646 l 0.03318,1.08239 c 0.0274,0.89407 0.06672,1.15783 0.226005,1.51597 0.345167,0.77613 1.048021,1.28824 2.219771,1.61736 0.786909,0.22103 3.796356,0.22053 5.136035,-8.6e-4 2.052301,-0.33915 3.302186,-0.70493 3.748891,-1.09714 0.162164,-0.14239 0.467626,-0.55843 0.678803,-0.92456 0.410125,-0.71103 0.516665,-0.78229 1.098454,-0.73467 0.416757,0.0341 0.411556,0.082 -0.133537,1.23064 l -0.409999,0.86394 0.572676,0.30093 c 0.83397,0.43824 1.402199,0.56043 2.606147,0.56043 1.305579,0 2.243778,-0.12605 2.794669,-0.37549 0.473949,-0.2146 0.712663,-0.52276 1.424753,-1.83926 0.21692,-0.40102 0.46151,-0.78962 0.54354,-0.86354 0.21559,-0.1943 0.53892,-0.24423 0.80613,-0.1245 l 0.23252,0.10419 -0.50784,1.1424 c -0.27931,0.62832 -0.47944,1.16998 -0.44475,1.20369 0.15764,0.15317 0.98242,0.50858 1.47403,0.63519 0.44095,0.11356 0.80192,0.13047 1.94234,0.091 1.97347,-0.0683 3.60015,-0.3891 4.81147,-0.94877 l 0.62061,-0.28673 -0.169,-0.39427 c -0.43279,-1.00966 -1.36249,-2.01794 -2.63863,-2.86166 -1.13679,-0.75159 -1.71378,-1.01216 -2.10334,-0.94987 -0.47087,0.0753 -1.02979,-0.18958 -1.29278,-0.61265 -0.27436,-0.44136 -0.26029,-1.18047 0.0403,-2.11779 l 0.21969,-0.68504 1.5929,-0.81468 c 1.61363,-0.82529 3.69185,-1.78872 5.28191,-2.44861 0.65761,-0.27291 0.90629,-0.3407 1.00998,-0.27529 0.17995,0.11351 0.29962,0.63465 0.23043,1.00347 -0.10531,0.56134 -0.3564,0.73666 -2.10458,1.46949 -0.89999,0.37728 -2.38128,1.01634 -3.29176,1.42015 -0.91048,0.4038 -1.79867,0.79374 -1.97376,0.86652 -0.1751,0.0728 -0.31835,0.15598 -0.31835,0.18487 0,0.0289 0.27696,0.13923 0.61547,0.24519 2.26273,0.70832 4.59685,2.4681 5.38226,4.05787 0.29832,0.60383 0.32662,0.72107 0.32471,1.3448 -0.003,0.83237 -0.21611,1.33862 -0.80884,1.91753 -0.98123,0.95835 -3.06098,1.51785 -5.76828,1.5518 -1.6417,0.0206 -2.51446,-0.20916 -3.47604,-0.91503 l -0.402355,-0.29535 -0.253896,0.28678 c -0.179914,0.20322 -0.412631,0.33575 -0.798611,0.45483 -1.475485,0.45517 -3.74044,0.61122 -4.700037,0.32381 -0.677853,-0.20303 -1.362021,-0.55693 -1.902339,-0.98402 l -0.445907,-0.35247 -0.695744,0.29369 c -1.212797,0.51196 -2.378059,0.82017 -3.889044,1.02865 -1.12185,0.15478 -3.245616,0.22562 -4.042352,0.13482 z m 13.950931,-7.24309 -0.670425,-0.61639 0.715515,-0.74009 0.715519,-0.74008 0.655277,0.65914 0.655278,0.65914 -0.268893,0.3377 c -0.416003,0.52244 -0.945502,1.05941 -1.043408,1.05812 -0.04864,-6.7e-4 -0.390132,-0.27853 -0.758863,-0.61754 z m 3.759185,0.14095 c -0.48972,-0.39424 -1.093773,-0.99707 -1.093773,-1.09157 0,-0.0495 0.304403,-0.39269 0.676443,-0.76255 l 0.67643,-0.67247 0.61819,0.58957 c 0.34,0.32426 0.62969,0.63298 0.64377,0.68603 0.026,0.0981 -0.63606,0.93216 -1.02177,1.28715 l -0.212,0.19511 z"
         id="path964"
         inkscape:connector-curvature="0" />
      <text
         id="text1261"
         y="53.10709"
         x="31.253784"
         style="font-style:normal;font-variant:normal;font-weight:normal;font-stretch:normal;font-size:7.76111126px;line-height:1.25;font-family:Arial;-inkscape-font-specification:Arial;font-variant-ligatures:normal;font-variant-caps:normal;font-variant-numeric:normal;font-feature-settings:normal;text-align:start;letter-spacing:0px;word-spacing:0px;writing-mode:lr-tb;text-anchor:start;fill:#000000;fill-opacity:1;stroke:none;stroke-width:0.26458332"
         xml:space="preserve"><tspan
           style="stroke-width:0.26458332"
           y="53.10709"
           x="31.253784"
           id="tspan1259"
           sodipodi:role="line">U+0643,U+062A,U+0628 script=arab</tspan></text>
    </g>
    <g
       id="g1054"
       transform="translate(-132.47413,54.514826)">
      <path
         style="fill:#000000;stroke-width:1"
         d="m 240.75394,41.431699 c -0.51911,-0.41312 -1.14301,-1.02969 -1.14301,-1.12957 0,-0.0494 0.33427,-0.4203 0.74281,-0.82419 l 0.74282,-0.73433 0.69979,0.71117 0.6998,0.71116 -0.41376,0.49185 c -0.22757,0.27052 -0.54385,0.61558 -0.70285,0.76679 l -0.28908,0.27495 z m -33.95421,-4.234234 c -1.27495,-0.0815 -2.34242,-0.22102 -2.43152,-0.31774 -0.0647,-0.0702 0.0353,-0.83681 0.17763,-1.36211 0.087,-0.32108 0.12439,-0.3625 0.28978,-0.32099 1.30882,0.3285 4.86662,0.49226 6.73713,0.31011 1.06602,-0.10381 2.28864,-0.28643 2.35281,-0.35144 0.018,-0.0182 -0.0384,-0.43419 -0.12516,-0.92445 -1.17955,-6.663289 -1.45063,-8.452389 -1.46636,-9.677829 -0.008,-0.60897 0.0216,-0.77634 0.18826,-1.07237 0.19849,-0.35251 0.6426,-0.66962 1.01358,-0.72374 0.18816,-0.0274 0.22079,0.0426 0.57969,1.24431 l 0.3803,1.2734 -0.26133,0.21841 c -0.17245,0.14412 -0.26134,0.29576 -0.26134,0.44581 0,0.12506 0.13092,1.49755 0.29093,3.04997 0.56535,5.485069 0.59345,6.401159 0.21902,7.139239 -0.39334,0.77536 -0.38848,0.77305 -1.9568,0.9306 -1.77136,0.17795 -4.19582,0.23672 -5.72662,0.13882 z m 14.83481,0.002 c -2.15483,-0.27149 -3.41863,-1.0805 -3.84924,-2.46406 -0.18388,-0.59081 -0.21656,-1.80561 -0.0729,-2.71163 0.13626,-0.85956 0.1294,-0.84893 0.54769,-0.84893 h 0.37033 l -0.009,0.91261 c -0.014,1.43795 0.2582,2.11392 1.08933,2.70483 0.44997,0.31991 1.18526,0.58207 1.98767,0.70867 0.82469,0.13011 2.90186,0.10626 4.08831,-0.0469 1.9413,-0.2507 4.91037,-1.14066 4.91037,-1.47186 0,-0.16041 -0.34206,-1.23815 -0.80763,-2.54466 -0.49654,-1.39342 -0.37017,-1.934679 0.63118,-2.703319 0.19769,-0.15175 0.38723,-0.2759 0.42121,-0.2759 0.0706,0 0.64693,2.841999 0.78266,3.859139 0.0496,0.3716 0.0651,0.84913 0.0344,1.06117 -0.0741,0.51264 -0.61104,1.78728 -0.8384,1.99038 -0.44077,0.39373 -2.30755,1.13429 -3.63478,1.44193 -1.49267,0.34599 -4.40168,0.54601 -5.65126,0.38858 z m 16.79282,-0.002 c -0.725,-0.0907 -1.76454,-0.36071 -2.1564,-0.56017 -0.86813,-0.4419 -1.46953,-1.1196 -1.7179,-1.93581 -0.15766,-0.51813 -0.16369,-2.11663 -0.011,-2.93267 l 0.10321,-0.5518 0.39524,-0.0256 0.39525,-0.0256 -0.0466,0.67939 c -0.18276,2.66643 1.22852,3.74374 4.90427,3.74374 2.18595,0 4.54552,-0.42643 6.3905,-1.15491 l 0.83333,-0.32904 -0.0558,-0.29797 c -0.0307,-0.16388 -0.25954,-0.871 -0.50852,-1.57137 -0.73776,-2.07528 -0.75348,-2.25098 -0.2611,-2.918359 0.27396,-0.37133 0.97351,-0.90587 1.05945,-0.80955 0.038,0.0426 0.18888,0.66962 0.33522,1.393339 0.6164,3.04836 0.61277,3.47928 -0.0415,4.93729 -0.2007,0.44722 -0.2819,0.53326 -0.74292,0.78719 -1.2417,0.68395 -2.98207,1.21216 -4.76225,1.44538 -1.22979,0.16112 -3.32098,0.22541 -4.11238,0.12644 z m -30.93767,-4.33535 -0.13973,-0.19949 0.58831,-0.14461 c 0.63619,-0.15638 1.16346,-0.39401 1.59927,-0.72077 0.34756,-0.26058 0.34959,-0.368 0.007,-0.368 -0.5715,0 -1.35956,-0.1913 -1.58425,-0.38456 -0.18944,-0.16295 -0.22669,-0.26475 -0.22669,-0.61949 0,-0.5292 0.32395,-1.032379 0.92489,-1.436629 0.54139,-0.36419 0.90535,-0.36882 1.25817,-0.016 0.32199,0.32199 0.22996,0.45295 -0.30413,0.43275 -0.33996,-0.0129 -0.41522,0.0229 -0.76714,0.364969 -0.52401,0.50928 -0.51563,0.68416 0.0385,0.80299 0.23576,0.0506 0.5044,0.0919 0.59698,0.0919 0.28252,0 0.73779,0.22971 0.8423,0.42498 0.14421,0.26946 -0.0237,0.60759 -0.52576,1.05904 -0.524,0.47112 -1.23273,0.82251 -1.76139,0.87331 -0.35417,0.034 -0.4245,0.0134 -0.54623,-0.16042 z m 14.05064,-3.10951 -0.70352,-0.657919 0.72784,-0.71959 0.72783,-0.71959 0.63682,0.63257 c 0.35026,0.34792 0.63683,0.65653 0.63683,0.68581 0,0.0813 -1.18859,1.436639 -1.25985,1.436639 -0.0343,0 -0.37901,-0.29606 -0.76595,-0.65792 z m 3.24523,-0.305259 -0.66106,-0.62362 0.67586,-0.73401 c 0.37173,-0.4037 0.69586,-0.7343 0.7203,-0.73467 0.0244,-3.2e-4 0.33922,0.29584 0.6995,0.65825 l 0.65505,0.65892 -0.59556,0.69937 c -0.32756,0.384649 -0.64899,0.699369 -0.71429,0.699369 -0.0653,0 -0.41621,-0.28063 -0.7798,-0.623609 z"
         id="path977"
         inkscape:connector-curvature="0" />
      <text
         id="text1261-7"
         y="53.10709"
         x="163.84477"
         style="font-style:normal;font-variant:normal;font-weight:normal;font-stretch:normal;font-size:7.76111126px;line-height:1.25;font-family:Arial;-inkscape-font-specification:Arial;font-variant-ligatures:normal;font-variant-caps:normal;font-variant-numeric:normal;font-feature-settings:normal;text-align:start;letter-spacing:0px;word-spacing:0px;writing-mode:lr-tb;text-anchor:start;fill:#000000;fill-opacity:1;stroke:none;stroke-width:0.26458332"
         xml:space="preserve"><tspan
           style="stroke-width:0.26458332"
           y="53.10709"
           x="163.84477"
           id="tspan1259-7"
           sodipodi:role="line">U+0643,U+062A,U+0628 script=latn</tspan></text>
    </g>
    <flowRoot
       transform="matrix(0.26458333,0,0,0.26458333,14.515062,33.149525)"
       style="font-style:normal;font-variant:normal;font-weight:normal;font-stretch:normal;font-size:192px;line-height:1.25;font-family:serif;-inkscape-font-specification:serif;font-variant-ligatures:normal;font-variant-caps:normal;font-variant-numeric:normal;font-feature-settings:normal;text-align:start;letter-spacing:0px;word-spacing:0px;writing-mode:lr-tb;text-anchor:start;fill:#000000;fill-opacity:1;stroke:none"
       id="flowRoot1014"
       xml:space="preserve"><flowRegion
         id="flowRegion1016"><rect
           y="301.67215"
           x="-42.426407"
           height="206.07112"
           width="778.82764"
           id="rect1018" /></flowRegion><flowPara
         id="flowPara1020"></flowPara></flowRoot>    <rect
       style="opacity:1;fill:none;fill-opacity:1;stroke:#000000;stroke-width:0.1763889;stroke-linecap:butt;stroke-linejoin:bevel;stroke-miterlimit:4;stroke-dasharray:1.41111145, 1.41111145;stroke-dashoffset:0;stroke-opacity:1"
       id="rect1087-3-5"
       width="135.05991"
       height="45.980194"
       x="26.44117"
       y="13.404136" />
    <rect
       style="opacity:1;fill:none;fill-opacity:1;stroke:#000000;stroke-width:0.1763889;stroke-linecap:butt;stroke-linejoin:bevel;stroke-miterlimit:4;stroke-dasharray:1.41111146, 1.41111146;stroke-dashoffset:0;stroke-opacity:1"
       id="rect1087-3-5-6"
       width="135.05991"
       height="45.980194"
       x="26.44117"
       y="70.225769" />
  </g>
</svg>
